<svg viewBox="0 0 400 400" xmlns="http://www.w3.org/2000/svg">
  <!-- Circuit board -->
  <rect x="100" y="100" width="200" height="200" rx="10" ry="10" fill="#006400" />
  
  <!-- Circuit traces -->
  <path d="M 120 120 L 280 120" stroke="#daa520" stroke-width="2" fill="none" />
  <path d="M 120 140 L 280 140" stroke="#daa520" stroke-width="2" fill="none" />
  <path d="M 120 160 L 280 160" stroke="#daa520" stroke-width="2" fill="none" />
  <path d="M 120 180 L 280 180" stroke="#daa520" stroke-width="2" fill="none" />
  <path d="M 120 200 L 280 200" stroke="#daa520" stroke-width="2" fill="none" />
  <path d="M 120 220 L 280 220" stroke="#daa520" stroke-width="2" fill="none" />
  <path d="M 120 240 L 280 240" stroke="#daa520" stroke-width="2" fill="none" />
  <path d="M 120 260 L 280 260" stroke="#daa520" stroke-width="2" fill="none" />
  <path d="M 120 280 L 280 280" stroke="#daa520" stroke-width="2" fill="none" />
  
  <path d="M 120 120 L 120 280" stroke="#daa520" stroke-width="2" fill="none" />
  <path d="M 140 120 L 140 280" stroke="#daa520" stroke-width="2" fill="none" />
  <path d="M 160 120 L 160 280" stroke="#daa520" stroke-width="2" fill="none" />
  <path d="M 180 120 L 180 280" stroke="#daa520" stroke-width="2" fill="none" />
  <path d="M 200 120 L 200 280" stroke="#daa520" stroke-width="2" fill="none" />
  <path d="M 220 120 L 220 280" stroke="#daa520" stroke-width="2" fill="none" />
  <path d="M 240 120 L 240 280" stroke="#daa520" stroke-width="2" fill="none" />
  <path d="M 260 120 L 260 280" stroke="#daa520" stroke-width="2" fill="none" />
  <path d="M 280 120 L 280 280" stroke="#daa520" stroke-width="2" fill="none" />
  
  <!-- Electronic components -->
  <!-- Main chip -->
  <rect x="180" y="180" width="40" height="40" fill="#1a1a1a" />
  <circle cx="185" cy="185" r="2" fill="#daa520" />
  <circle cx="195" cy="185" r="2" fill="#daa520" />
  <circle cx="205" cy="185" r="2" fill="#daa520" />
  <circle cx="215" cy="185" r="2" fill="#daa520" />
  <circle cx="185" cy="215" r="2" fill="#daa520" />
  <circle cx="195" cy="215" r="2" fill="#daa520" />
  <circle cx="205" cy="215" r="2" fill="#daa520" />
  <circle cx="215" cy="215" r="2" fill="#daa520" />
  <circle cx="185" cy="195" r="2" fill="#daa520" />
  <circle cx="185" cy="205" r="2" fill="#daa520" />
  <circle cx="215" cy="195" r="2" fill="#daa520" />
  <circle cx="215" cy="205" r="2" fill="#daa520" />
  
  <!-- Capacitors -->
  <rect x="130" y="150" width="8" height="20" fill="#c0c0c0" />
  <rect x="150" y="150" width="8" height="20" fill="#c0c0c0" />
  <rect x="240" y="150" width="8" height="20" fill="#c0c0c0" />
  <rect x="260" y="150" width="8" height="20" fill="#c0c0c0" />
  
  <!-- Resistors -->
  <rect x="130" y="230" width="20" height="8" fill="#cd853f" />
  <rect x="160" y="230" width="20" height="8" fill="#cd853f" />
  <rect x="220" y="230" width="20" height="8" fill="#cd853f" />
  <rect x="250" y="230" width="20" height="8" fill="#cd853f" />
  
  <!-- LEDs -->
  <circle cx="150" cy="130" r="5" fill="#ff0000" />
  <circle cx="170" cy="130" r="5" fill="#00ff00" />
  
  <!-- Mount holes -->
  <circle cx="110" cy="110" r="5" fill="#555" />
  <circle cx="290" cy="110" r="5" fill="#555" />
  <circle cx="110" cy="290" r="5" fill="#555" />
  <circle cx="290" cy="290" r="5" fill="#555" />
</svg>